  0
SECTION
  2
HEADER
  9
$ACADVER
  1
AC1009
  9
$DWGCODEPAGE
  3
ansi_1252
  9
$INSBASE
 10
0.0
 20
0.0
 30
0.0
  9
$EXTMIN
 10
-0.0000614862
 20
-43.0118091457
 30
0.0
  9
$EXTMAX
 10
50.0000614862
 20
42.3461935523
 30
0.0
  9
$LIMMIN
 10
0.0
 20
0.0
  9
$LIMMAX
 10
420.0
 20
297.0
  9
$ORTHOMODE
 70
     0
  9
$REGENMODE
 70
     1
  9
$FILLMODE
 70
     1
  9
$QTEXTMODE
 70
     0
  9
$MIRRTEXT
 70
     1
  9
$DRAGMODE
 70
     2
  9
$LTSCALE
 40
1.0
  9
$OSMODE
 70
    37
  9
$ATTMODE
 70
     1
  9
$TEXTSIZE
 40
3.5
  9
$TRACEWID
 40
1.0
  9
$TEXTSTYLE
  7
STANDARD
  9
$CLAYER
  8
0
  9
$CELTYPE
  6
BYLAYER
  9
$CECOLOR
 62
   256
  9
$DIMSCALE
 40
1.0
  9
$DIMASZ
 40
3.302
  9
$DIMEXO
 40
0.0
  9
$DIMDLI
 40
3.75
  9
$DIMRND
 40
0.0
  9
$DIMDLE
 40
0.0
  9
$DIMEXE
 40
1.0
  9
$DIMTP
 40
0.0
  9
$DIMTM
 40
0.0
  9
$DIMTXT
 40
3.5
  9
$DIMCEN
 40
2.5
  9
$DIMTSZ
 40
0.0
  9
$DIMTOL
 70
     0
  9
$DIMLIM
 70
     0
  9
$DIMTIH
 70
     1
  9
$DIMTOH
 70
     1
  9
$DIMSE1
 70
     0
  9
$DIMSE2
 70
     0
  9
$DIMTAD
 70
     1
  9
$DIMZIN
 70
     0
  9
$DIMBLK
  1

  9
$DIMASO
 70
     1
  9
$DIMSHO
 70
     1
  9
$DIMPOST
  1

  9
$DIMAPOST
  1

  9
$DIMALT
 70
     0
  9
$DIMALTD
 70
     3
  9
$DIMALTF
 40
0.0393700787
  9
$DIMLFAC
 40
1.0
  9
$DIMTOFL
 70
     1
  9
$DIMTVP
 40
0.0
  9
$DIMTIX
 70
     0
  9
$DIMSOXD
 70
     0
  9
$DIMSAH
 70
     0
  9
$DIMBLK1
  1

  9
$DIMBLK2
  1

  9
$DIMSTYLE
  2
ISO-25
  9
$DIMCLRD
 70
     0
  9
$DIMCLRE
 70
     0
  9
$DIMCLRT
 70
     0
  9
$DIMTFAC
 40
1.0
  9
$DIMGAP
 40
1.524
  9
$LUNITS
 70
     2
  9
$LUPREC
 70
     2
  9
$SKETCHINC
 40
1.0
  9
$FILLETRAD
 40
0.0
  9
$AUNITS
 70
     0
  9
$AUPREC
 70
     2
  9
$MENU
  1
.
  9
$ELEVATION
 40
0.0
  9
$PELEVATION
 40
0.0
  9
$THICKNESS
 40
0.0
  9
$LIMCHECK
 70
     0
  9
$CHAMFERA
 40
0.0
  9
$CHAMFERB
 40
0.0
  9
$SKPOLY
 70
     0
  9
$TDCREATE
 40
2460790.53832588
  9
$TDUPDATE
 40
2460790.538344746
  9
$TDINDWG
 40
0.0000000116
  9
$TDUSRTIMER
 40
0.0000000116
  9
$USRTIMER
 70
     1
  9
$ANGBASE
 50
0.0
  9
$ANGDIR
 70
     0
  9
$PDMODE
 70
     0
  9
$PDSIZE
 40
-1.0
  9
$PLINEWID
 40
0.0
  9
$COORDS
 70
     1
  9
$SPLFRAME
 70
     0
  9
$SPLINETYPE
 70
     6
  9
$SPLINESEGS
 70
     8
  9
$ATTDIA
 70
     0
  9
$ATTREQ
 70
     1
  9
$HANDLING
 70
     1
  9
$HANDSEED
  5
F0
  9
$SURFTAB1
 70
     6
  9
$SURFTAB2
 70
     6
  9
$SURFTYPE
 70
     6
  9
$SURFU
 70
     6
  9
$SURFV
 70
     6
  9
$UCSNAME
  2

  9
$UCSORG
 10
0.0
 20
0.0
 30
0.0
  9
$UCSXDIR
 10
1.0
 20
0.0
 30
0.0
  9
$UCSYDIR
 10
0.0
 20
1.0
 30
0.0
  9
$PUCSNAME
  2

  9
$PUCSORG
 10
0.0
 20
0.0
 30
0.0
  9
$PUCSXDIR
 10
1.0
 20
0.0
 30
0.0
  9
$PUCSYDIR
 10
0.0
 20
1.0
 30
0.0
  9
$USERI1
 70
     0
  9
$USERI2
 70
     0
  9
$USERI3
 70
     0
  9
$USERI4
 70
     0
  9
$USERI5
 70
     0
  9
$USERR1
 40
0.0
  9
$USERR2
 40
0.0
  9
$USERR3
 40
0.0
  9
$USERR4
 40
0.0
  9
$USERR5
 40
0.0
  9
$WORLDVIEW
 70
     1
  9
$SHADEDGE
 70
     3
  9
$SHADEDIF
 70
    70
  9
$TILEMODE
 70
     1
  9
$MAXACTVP
 70
    64
  9
$PLIMCHECK
 70
     0
  9
$PEXTMIN
 10
1.0000000000E+20
 20
1.0000000000E+20
 30
1.0000000000E+20
  9
$PEXTMAX
 10
-1.0000000000E+20
 20
-1.0000000000E+20
 30
-1.0000000000E+20
  9
$PLIMMIN
 10
0.0
 20
0.0
  9
$PLIMMAX
 10
420.0
 20
297.0
  9
$UNITMODE
 70
     0
  9
$VISRETAIN
 70
     1
  9
$PLINEGEN
 70
     0
  9
$PSLTSCALE
 70
     1
  0
ENDSEC
  0
SECTION
  2
TABLES
  0
TABLE
  2
VPORT
 70
     1
  0
VPORT
  2
*ACTIVE
 70
     0
 10
0.0
 20
0.0
 11
1.0
 21
1.0
 12
25.0
 22
-0.3328077967
 13
0.0
 23
0.0
 14
10.0
 24
10.0
 15
10.0
 25
10.0
 16
0.0
 26
0.0
 36
1.0
 17
0.0
 27
0.0
 37
0.0
 40
87.065162752
 41
0.5857695985
 42
50.0
 43
0.0
 44
0.0
 50
0.0
 51
0.0
 71
     0
 72
   100
 73
     1
 74
     3
 75
     0
 76
     0
 77
     0
 78
     0
  0
ENDTAB
  0
TABLE
  2
LTYPE
 70
     6
  0
LTYPE
  2
CONTINUOUS
 70
     0
  3
Solid line
 72
    65
 73
     0
 40
0.0
  0
LTYPE
  2
HIDDEN
 70
     0
  3
Hidden __ __ __ __ __ __ __ __ __ __ __ __ __ __
 72
    65
 73
     2
 40
1.905
 49
1.27
 49
-0.635
  0
LTYPE
  2
PHANTOM
 70
     0
  3
Phantom ______  __  __  ______  __  __  ______
 72
    65
 73
     6
 40
12.7
 49
6.35
 49
-1.27
 49
1.27
 49
-1.27
 49
1.27
 49
-1.27
  0
LTYPE
  2
CENTER
 70
     0
  3
Center ____ _ ____ _ ____ _ ____ _ ____ _ ____
 72
    65
 73
     4
 40
10.16
 49
6.35
 49
-1.27
 49
1.27
 49
-1.27
  0
LTYPE
  2
CENTERX2
 70
     0
  3
Center (2x) ________  __  ________  __  _____
 72
    65
 73
     4
 40
20.32
 49
12.7
 49
-2.54
 49
2.54
 49
-2.54
  0
LTYPE
  2
DOT2
 70
     0
  3
Dot (.5x) ........................................
 72
    65
 73
     2
 40
0.635
 49
0.0
 49
-0.635
  0
ENDTAB
  0
TABLE
  2
LAYER
 70
    12
  0
LAYER
  2
0
 70
     0
 62
     7
  6
CONTINUOUS
  0
LAYER
  2
DEFPOINTS
 70
     0
 62
     7
  6
CONTINUOUS
  0
LAYER
  2
BOTTOM
 70
     0
 62
     8
  6
CONTINUOUS
  0
LAYER
  2
CUT
 70
     0
 62
     7
  6
CONTINUOUS
  0
LAYER
  2
DRILL
 70
     0
 62
     6
  6
CONTINUOUS
  0
LAYER
  2
ETCH
 70
     0
 62
     4
  6
CONTINUOUS
  0
LAYER
  2
FRONT
 70
     0
 62
     3
  6
CONTINUOUS
  0
LAYER
  2
OXY
 70
     0
 62
     5
  6
CONTINUOUS
  0
LAYER
  2
POPMARK
 70
     0
 62
     2
  6
CONTINUOUS
  0
LAYER
  2
TEXT
 70
     0
 62
    30
  6
CONTINUOUS
  0
LAYER
  2
TOP
 70
     0
 62
     1
  6
CONTINUOUS
  0
LAYER
  2
SLD-DEFPOINTS
 70
     0
 62
     7
  6
CONTINUOUS
  0
ENDTAB
  0
TABLE
  2
STYLE
 70
     1
  0
STYLE
  2
STANDARD
 70
     0
 40
0.0
 41
1.0
 50
0.0
 71
     0
 42
3.5
  3
txt
  4

  0
ENDTAB
  0
TABLE
  2
VIEW
 70
     0
  0
ENDTAB
  0
TABLE
  2
UCS
 70
     0
  0
ENDTAB
  0
TABLE
  2
APPID
 70
     1
  0
APPID
  2
ACAD
 70
     0
  0
ENDTAB
  0
TABLE
  2
DIMSTYLE
 70
     1
  0
DIMSTYLE
  2
ISO-25
 70
     0
  3

  4

  5

  6

  7

 40
1.0
 41
2.5
 42
0.625
 43
3.75
 44
1.25
 45
0.0
 46
0.0
 47
0.0
 48
0.0
140
2.5
141
2.5
142
0.0
143
0.0393700787
144
1.0
145
0.0
146
1.0
147
0.625
 71
     0
 72
     0
 73
     0
 74
     0
 75
     0
 76
     0
 77
     1
 78
     8
170
     0
171
     3
172
     1
173
     0
174
     0
175
     0
176
     0
177
     0
178
     0
  0
ENDTAB
  0
ENDSEC
  0
SECTION
  2
BLOCKS
  0
BLOCK
  8
0
  2
$MODEL_SPACE
 70
     0
 10
0.0
 20
0.0
 30
0.0
  3
$MODEL_SPACE
  1

  0
ENDBLK
  5
21
  8
0
  0
BLOCK
 67
     1
  8
0
  2
$PAPER_SPACE
 70
     0
 10
0.0
 20
0.0
 30
0.0
  3
$PAPER_SPACE
  1

  0
ENDBLK
  5
1D
 67
     1
  8
0
  0
ENDSEC
  0
SECTION
  2
ENTITIES
  0
CIRCLE
  5
A6
  8
CUT
 10
25.0185839286
 20
-18.1515971525
 30
0.0
 40
2.251659542492356
  0
CIRCLE
  5
AF
  8
CUT
 10
25.0187174483
 20
12.9474295893
 30
0.0
 40
2.251441215700655
  0
LINE
  5
B0
  8
CUT
 10
15.6449224458
 20
19.0603059683
 30
0.0
 11
7.6531745931
 21
27.0369734598
 31
0.0
  0
LINE
  5
B1
  8
CUT
 10
10.8069805153
 20
30.3699691057
 30
0.0
 11
18.7987283681
 21
22.3427957116
 31
0.0
  0
LINE
  5
B2
  8
CUT
 10
10.8069805153
 20
-16.1961877894
 30
0.0
 11
26.8468254069
 21
-32.2070102832
 31
0.0
  0
LINE
  5
B3
  8
CUT
 10
23.6930194847
 20
-35.5689230416
 30
0.0
 11
7.6531745931
 21
-19.4566087008
 31
0.0
  0
LINE
  5
B4
  8
CUT
 10
34.3550775542
 20
-24.2266781862
 30
0.0
 11
42.3468254069
 21
-32.2070102832
 31
0.0
  0
LINE
  5
B5
  8
CUT
 10
39.1930194847
 20
-35.5689230416
 30
0.0
 11
31.2012716319
 21
-27.5375562375
 31
0.0
  0
LINE
  5
B6
  8
CUT
 10
15.6449224458
 20
-11.9222288767
 30
0.0
 11
7.6531745931
 21
-3.9055044736
 31
0.0
  0
LINE
  5
B7
  8
CUT
 10
10.8069805153
 20
-0.7397652139
 30
0.0
 11
18.7987283681
 21
-8.7080700824
 31
0.0
  0
LINE
  5
B8
  8
CUT
 10
10.2463024316
 20
-0.3328077967
 30
0.0
 11
10.8069805153
 21
-0.7397652139
 31
0.0
  0
LINE
  5
B9
  8
CUT
 10
10.2291800469
 20
-0.3241631466
 30
0.0
 11
10.2463024316
 21
-0.3328077967
 31
0.0
  0
LINE
  5
BA
  8
CUT
 10
8.2138526767
 20
-0.3328077967
 30
0.0
 11
8.2438863084
 21
-0.3177711948
 31
0.0
  0
LINE
  5
BB
  8
CUT
 10
35.0911940777
 20
-0.3328077967
 30
0.0
 11
31.2012716319
 21
3.5455531417
 31
0.0
  0
LINE
  5
BC
  8
CUT
 10
39.1930194847
 20
-4.446984828
 30
0.0
 11
35.0911940777
 21
-0.3328077967
 31
0.0
  0
LINE
  5
BD
  8
CUT
 10
41.3988059223
 20
-0.3328077967
 30
0.0
 11
42.3482414095
 21
-1.2794125275
 31
0.0
  0
LINE
  5
BE
  8
CUT
 10
34.3550775542
 20
6.7322854552
 30
0.0
 11
41.3988059223
 21
-0.3328077967
 31
0.0
  0
LINE
  5
BF
  8
CUT
 10
39.1930194847
 20
11.0323490126
 30
0.0
 11
18.6431745931
 21
31.5413946899
 31
0.0
  0
LINE
  5
C0
  8
CUT
 10
21.7969805153
 20
34.9033074482
 30
0.0
 11
42.3468254069
 21
14.264889962
 31
0.0
  0
LINE
  5
C1
  8
CUT
 10
19.5911940777
 20
-0.3328077967
 30
0.0
 11
7.6531745931
 21
11.5707289257
 31
0.0
  0
LINE
  5
C2
  8
CUT
 10
39.1930194847
 20
-19.9984783227
 30
0.0
 11
19.5911940777
 21
-0.3328077967
 31
0.0
  0
LINE
  5
C3
  8
CUT
 10
25.8988059223
 20
-0.3328077967
 30
0.0
 11
42.3468254069
 21
-16.7347014424
 31
0.0
  0
LINE
  5
C4
  8
CUT
 10
10.8069805153
 20
14.8065924789
 30
0.0
 11
25.8988059223
 21
-0.3328077967
 31
0.0
  0
LINE
  5
C5
  8
CUT
 10
39.1930194847
 20
26.4979515965
 30
0.0
 11
34.1431745931
 21
31.5413946899
 31
0.0
  0
LINE
  5
C6
  8
CUT
 10
37.2969805153
 20
34.9033074482
 30
0.0
 11
42.3468254069
 21
29.8275062339
 31
0.0
  0
LINE
  5
C7
  8
CUT
 10
42.0
 20
42.3461904278
 30
0.0
 11
8.0
 21
42.3461904278
 31
0.0
  0
LINE
  5
C8
  8
CUT
 10
50.0
 20
-34.9874636244
 30
0.0
 11
50.0
 21
34.3218480311
 31
0.0
  0
LINE
  5
C9
  8
CUT
 10
8.0
 20
-43.0118060212
 30
0.0
 11
42.0
 21
-43.0118060212
 31
0.0
  0
LINE
  5
CA
  8
CUT
 10
0.0
 20
34.3218480311
 30
0.0
 11
0.0
 21
-34.9874636244
 31
0.0
  0
ARC
  5
CB
  8
CUT
 10
9.2204597077
 20
28.8145609097
 30
0.0
 40
2.221788227782985
 50
44.4326532924
 51
182.9978482231
  0
ARC
  5
CC
  8
CUT
 10
9.450808258
 20
28.7002802162
 30
0.0
 40
2.44909700894164
 50
180.0448099303
 51
222.7773371068
  0
ARC
  5
CD
  8
CUT
 10
17.230559828
 20
20.6167436496
 30
0.0
 40
2.22187852136154
 50
224.4675584042
 51
2.0509497489
  0
ARC
  5
CE
  8
CUT
 10
16.9892965402
 20
20.6735048117
 30
0.0
 40
2.461823642820608
 50
0.5296202389
 51
42.6930773454
  0
ARC
  5
CF
  8
CUT
 10
25.2854506531
 20
-34.0264891322
 30
0.0
 40
2.216966258459247
 50
224.0862799482
 51
3.7145195398
  0
ARC
  5
D0
  8
CUT
 10
25.0513015767
 20
-33.8687712497
 30
0.0
 40
2.446498586680656
 50
359.6699869813
 51
42.7843228858
  0
ARC
  5
D1
  8
CUT
 10
9.2213824535
 20
-17.7525927684
 30
0.0
 40
2.221827552311635
 50
44.46766687
 51
181.7693854785
  0
ARC
  5
D2
  8
CUT
 10
9.459819337
 20
-17.7878253367
 30
0.0
 40
2.459431468217933
 50
180.7774259224
 51
222.7284133321
  0
ARC
  5
D3
  8
CUT
 10
40.7854506531
 20
-34.0264891322
 30
0.0
 40
2.216966258445223
 50
224.0862799479
 51
3.7145195198
  0
ARC
  5
D4
  8
CUT
 10
40.5513015767
 20
-33.8687712498
 30
0.0
 40
2.446498586788396
 50
359.6699869647
 51
42.7843228862
  0
ARC
  5
D5
  8
CUT
 10
32.7697392249
 20
-25.783969442
 30
0.0
 40
2.222263187344155
 50
44.4886650701
 51
182.398550857
  0
ARC
  5
D6
  8
CUT
 10
33.0162340356
 20
-25.8668766936
 30
0.0
 40
2.466831705899391
 50
180.2344791373
 51
222.6296813058
  0
ARC
  5
D7
  8
CUT
 10
17.2315486768
 20
-10.3681848278
 30
0.0
 40
2.220908756073412
 50
224.4056190584
 51
1.490647638
  0
ARC
  5
D8
  8
CUT
 10
17.0217299532
 20
-10.3664424863
 30
0.0
 40
2.430621812688099
 50
1.3209272245
 51
43.0223182203
  0
ARC
  5
D9
  8
CUT
 10
9.2297938188
 20
-2.4140864813
 30
0.0
 40
2.316582046460148
 50
64.4432104009
 51
115.1878310929
  0
ARC
  5
DA
  8
CUT
 10
9.2646157855
 20
-2.3390949466
 30
0.0
 40
2.264793862334985
 50
117.6426315912
 51
179.1440046364
  0
ARC
  5
DB
  8
CUT
 10
9.4516120066
 20
-2.2381215573
 30
0.0
 40
2.452456507215894
 50
181.5687327258
 51
222.8344827287
  0
ARC
  5
DC
  8
CUT
 10
40.7795776988
 20
-2.8931826734
 30
0.0
 40
2.220690906575736
 50
224.4023883611
 51
0.9119316223
  0
ARC
  5
DD
  8
CUT
 10
40.57138324
 20
-2.9368615989
 30
0.0
 40
2.429889375863436
 50
1.8636442277
 51
43.0086573849
  0
ARC
  5
DE
  8
CUT
 10
32.7685074617
 20
5.1783566896
 30
0.0
 40
2.220787983339906
 50
44.4045076884
 51
181.1366995072
  0
ARC
  5
DF
  8
CUT
 10
32.980346182
 20
5.2055270922
 30
0.0
 40
2.43323237090083
 50
181.6774129285
 51
223.0165340732
  0
ARC
  5
E0
  8
CUT
 10
20.2045781339
 20
33.3608054103
 30
0.0
 40
2.216992981782307
 50
44.088062262
 51
183.7133386405
  0
ARC
  5
E1
  8
CUT
 10
20.4373321016
 20
33.202625964
 30
0.0
 40
2.445136092683329
 50
179.657959365
 51
222.7969603293
  0
ARC
  5
E2
  8
CUT
 10
40.778580045
 20
12.5886931363
 30
0.0
 40
2.221758160105916
 50
224.4672243649
 51
1.412865986
  0
ARC
  5
E3
  8
CUT
 10
40.5435112454
 20
12.5966789398
 30
0.0
 40
2.456597235929295
 50
1.0914844781
 51
42.7713152572
  0
ARC
  5
E4
  8
CUT
 10
40.7797080753
 20
-18.4441338043
 30
0.0
 40
2.221163561146597
 50
224.4100306263
 51
2.122935823
  0
ARC
  5
E5
  8
CUT
 10
40.559668846
 20
-18.3958016886
 30
0.0
 40
2.439914466051952
 50
0.7972186646
 51
42.906397214
  0
ARC
  5
E6
  8
CUT
 10
9.2203471347
 20
13.2523781384
 30
0.0
 40
2.221033025617238
 50
44.4086283769
 51
181.7623908505
  0
ARC
  5
E7
  8
CUT
 10
9.4372377432
 20
13.2313629124
 30
0.0
 40
2.437331853042887
 50
181.1117884293
 51
222.9478759387
  0
ARC
  5
E8
  8
CUT
 10
35.7045781339
 20
33.3608054103
 30
0.0
 40
2.216992981747863
 50
44.0880622611
 51
183.7133385915
  0
ARC
  5
E9
  8
CUT
 10
35.9373321018
 20
33.2026259642
 30
0.0
 40
2.445136092948177
 50
179.6579593245
 51
222.7969603302
  0
ARC
  5
EA
  8
CUT
 10
40.7787723178
 20
28.0544502081
 30
0.0
 40
2.222003594919673
 50
224.4665942452
 51
2.6580067067
  0
ARC
  5
EB
  8
CUT
 10
40.5367308643
 20
28.1591827319
 30
0.0
 40
2.461655045015057
 50
359.9606974367
 51
42.6660686387
  0
ARC
  5
EC
  8
CUT
 10
7.9930330664
 20
34.3530993046
 30
0.0
 40
7.9930941594977
 50
89.9500598974
 51
180.2240147062
  0
ARC
  5
ED
  8
CUT
 10
42.0070674097
 20
34.3531994759
 30
0.0
 40
7.992994076481243
 50
359.7752644306
 51
90.0506609657
  0
ARC
  5
EE
  8
CUT
 10
42.0069669336
 20
-35.018714898
 30
0.0
 40
7.993094159497685
 50
269.9500598974
 51
0.2240147062
  0
ARC
  5
EF
  8
CUT
 10
7.9929325903
 20
-35.0188150692
 30
0.0
 40
7.992994076481548
 50
179.7752644306
 51
270.0506609657
  0
ENDSEC
  0
EOF
