  0
SECTION
  2
HEADER
  9
$ACADVER
  1
AC1009
  9
$DWGCODEPAGE
  3
ansi_1252
  9
$INSBASE
 10
0.0
 20
0.0
 30
0.0
  9
$EXTMIN
 10
-15.0301021389
 20
-12.5
 30
0.0
  9
$EXTMAX
 10
40.0
 20
201.5308841809
 30
0.0
  9
$LIMMIN
 10
0.0
 20
0.0
  9
$LIMMAX
 10
420.0
 20
297.0
  9
$ORTHOMODE
 70
     0
  9
$REGENMODE
 70
     1
  9
$FILLMODE
 70
     1
  9
$QTEXTMODE
 70
     0
  9
$MIRRTEXT
 70
     1
  9
$DRAGMODE
 70
     2
  9
$LTSCALE
 40
1.0
  9
$OSMODE
 70
    37
  9
$ATTMODE
 70
     1
  9
$TEXTSIZE
 40
3.5
  9
$TRACEWID
 40
1.0
  9
$TEXTSTYLE
  7
STANDARD
  9
$CLAYER
  8
0
  9
$CELTYPE
  6
BYLAYER
  9
$CECOLOR
 62
   256
  9
$DIMSCALE
 40
1.0
  9
$DIMASZ
 40
3.302
  9
$DIMEXO
 40
0.0
  9
$DIMDLI
 40
3.75
  9
$DIMRND
 40
0.0
  9
$DIMDLE
 40
0.0
  9
$DIMEXE
 40
1.0
  9
$DIMTP
 40
0.0
  9
$DIMTM
 40
0.0
  9
$DIMTXT
 40
3.5
  9
$DIMCEN
 40
2.5
  9
$DIMTSZ
 40
0.0
  9
$DIMTOL
 70
     0
  9
$DIMLIM
 70
     0
  9
$DIMTIH
 70
     1
  9
$DIMTOH
 70
     1
  9
$DIMSE1
 70
     0
  9
$DIMSE2
 70
     0
  9
$DIMTAD
 70
     1
  9
$DIMZIN
 70
     0
  9
$DIMBLK
  1

  9
$DIMASO
 70
     1
  9
$DIMSHO
 70
     1
  9
$DIMPOST
  1

  9
$DIMAPOST
  1

  9
$DIMALT
 70
     0
  9
$DIMALTD
 70
     3
  9
$DIMALTF
 40
0.0393700787
  9
$DIMLFAC
 40
1.0
  9
$DIMTOFL
 70
     1
  9
$DIMTVP
 40
0.0
  9
$DIMTIX
 70
     0
  9
$DIMSOXD
 70
     0
  9
$DIMSAH
 70
     0
  9
$DIMBLK1
  1

  9
$DIMBLK2
  1

  9
$DIMSTYLE
  2
ISO-25
  9
$DIMCLRD
 70
     0
  9
$DIMCLRE
 70
     0
  9
$DIMCLRT
 70
     0
  9
$DIMTFAC
 40
1.0
  9
$DIMGAP
 40
1.524
  9
$LUNITS
 70
     2
  9
$LUPREC
 70
     2
  9
$SKETCHINC
 40
1.0
  9
$FILLETRAD
 40
0.0
  9
$AUNITS
 70
     0
  9
$AUPREC
 70
     2
  9
$MENU
  1
.
  9
$ELEVATION
 40
0.0
  9
$PELEVATION
 40
0.0
  9
$THICKNESS
 40
0.0
  9
$LIMCHECK
 70
     0
  9
$CHAMFERA
 40
0.0
  9
$CHAMFERB
 40
0.0
  9
$SKPOLY
 70
     0
  9
$TDCREATE
 40
2460782.519050278
  9
$TDUPDATE
 40
2460782.51906522
  9
$TDINDWG
 40
0.0000000116
  9
$TDUSRTIMER
 40
0.0000000116
  9
$USRTIMER
 70
     1
  9
$ANGBASE
 50
0.0
  9
$ANGDIR
 70
     0
  9
$PDMODE
 70
     0
  9
$PDSIZE
 40
-1.0
  9
$PLINEWID
 40
0.0
  9
$COORDS
 70
     1
  9
$SPLFRAME
 70
     0
  9
$SPLINETYPE
 70
     6
  9
$SPLINESEGS
 70
     8
  9
$ATTDIA
 70
     0
  9
$ATTREQ
 70
     1
  9
$HANDLING
 70
     1
  9
$HANDSEED
  5
D2
  9
$SURFTAB1
 70
     6
  9
$SURFTAB2
 70
     6
  9
$SURFTYPE
 70
     6
  9
$SURFU
 70
     6
  9
$SURFV
 70
     6
  9
$UCSNAME
  2

  9
$UCSORG
 10
0.0
 20
0.0
 30
0.0
  9
$UCSXDIR
 10
1.0
 20
0.0
 30
0.0
  9
$UCSYDIR
 10
0.0
 20
1.0
 30
0.0
  9
$PUCSNAME
  2

  9
$PUCSORG
 10
0.0
 20
0.0
 30
0.0
  9
$PUCSXDIR
 10
1.0
 20
0.0
 30
0.0
  9
$PUCSYDIR
 10
0.0
 20
1.0
 30
0.0
  9
$USERI1
 70
     0
  9
$USERI2
 70
     0
  9
$USERI3
 70
     0
  9
$USERI4
 70
     0
  9
$USERI5
 70
     0
  9
$USERR1
 40
0.0
  9
$USERR2
 40
0.0
  9
$USERR3
 40
0.0
  9
$USERR4
 40
0.0
  9
$USERR5
 40
0.0
  9
$WORLDVIEW
 70
     1
  9
$SHADEDGE
 70
     3
  9
$SHADEDIF
 70
    70
  9
$TILEMODE
 70
     1
  9
$MAXACTVP
 70
    64
  9
$PLIMCHECK
 70
     0
  9
$PEXTMIN
 10
1.0000000000E+20
 20
1.0000000000E+20
 30
1.0000000000E+20
  9
$PEXTMAX
 10
-1.0000000000E+20
 20
-1.0000000000E+20
 30
-1.0000000000E+20
  9
$PLIMMIN
 10
0.0
 20
0.0
  9
$PLIMMAX
 10
420.0
 20
297.0
  9
$UNITMODE
 70
     0
  9
$VISRETAIN
 70
     1
  9
$PLINEGEN
 70
     0
  9
$PSLTSCALE
 70
     1
  0
ENDSEC
  0
SECTION
  2
TABLES
  0
TABLE
  2
VPORT
 70
     1
  0
VPORT
  2
*ACTIVE
 70
     0
 10
0.0
 20
0.0
 11
1.0
 21
1.0
 12
12.4849489305
 22
94.5154420904
 13
0.0
 23
0.0
 14
10.0
 24
10.0
 15
10.0
 25
10.0
 16
0.0
 26
0.0
 36
1.0
 17
0.0
 27
0.0
 37
0.0
 40
218.3115018645
 41
0.2571129038
 42
50.0
 43
0.0
 44
0.0
 50
0.0
 51
0.0
 71
     0
 72
   100
 73
     1
 74
     3
 75
     0
 76
     0
 77
     0
 78
     0
  0
ENDTAB
  0
TABLE
  2
LTYPE
 70
     6
  0
LTYPE
  2
CONTINUOUS
 70
     0
  3
Solid line
 72
    65
 73
     0
 40
0.0
  0
LTYPE
  2
HIDDEN
 70
     0
  3
Hidden __ __ __ __ __ __ __ __ __ __ __ __ __ __
 72
    65
 73
     2
 40
1.905
 49
1.27
 49
-0.635
  0
LTYPE
  2
PHANTOM
 70
     0
  3
Phantom ______  __  __  ______  __  __  ______
 72
    65
 73
     6
 40
12.7
 49
6.35
 49
-1.27
 49
1.27
 49
-1.27
 49
1.27
 49
-1.27
  0
LTYPE
  2
CENTER
 70
     0
  3
Center ____ _ ____ _ ____ _ ____ _ ____ _ ____
 72
    65
 73
     4
 40
10.16
 49
6.35
 49
-1.27
 49
1.27
 49
-1.27
  0
LTYPE
  2
CENTERX2
 70
     0
  3
Center (2x) ________  __  ________  __  _____
 72
    65
 73
     4
 40
20.32
 49
12.7
 49
-2.54
 49
2.54
 49
-2.54
  0
LTYPE
  2
DOT2
 70
     0
  3
Dot (.5x) ........................................
 72
    65
 73
     2
 40
0.635
 49
0.0
 49
-0.635
  0
ENDTAB
  0
TABLE
  2
LAYER
 70
    12
  0
LAYER
  2
0
 70
     0
 62
     7
  6
CONTINUOUS
  0
LAYER
  2
DEFPOINTS
 70
     0
 62
     7
  6
CONTINUOUS
  0
LAYER
  2
BOTTOM
 70
     0
 62
     8
  6
CONTINUOUS
  0
LAYER
  2
CUT
 70
     0
 62
     7
  6
CONTINUOUS
  0
LAYER
  2
DRILL
 70
     0
 62
     6
  6
CONTINUOUS
  0
LAYER
  2
ETCH
 70
     0
 62
     4
  6
CONTINUOUS
  0
LAYER
  2
FRONT
 70
     0
 62
     3
  6
CONTINUOUS
  0
LAYER
  2
OXY
 70
     0
 62
     5
  6
CONTINUOUS
  0
LAYER
  2
POPMARK
 70
     0
 62
     2
  6
CONTINUOUS
  0
LAYER
  2
TEXT
 70
     0
 62
    30
  6
CONTINUOUS
  0
LAYER
  2
TOP
 70
     0
 62
     1
  6
CONTINUOUS
  0
LAYER
  2
SLD-DEFPOINTS
 70
     0
 62
     7
  6
CONTINUOUS
  0
ENDTAB
  0
TABLE
  2
STYLE
 70
     1
  0
STYLE
  2
STANDARD
 70
     0
 40
0.0
 41
1.0
 50
0.0
 71
     0
 42
3.5
  3
txt
  4

  0
ENDTAB
  0
TABLE
  2
VIEW
 70
     0
  0
ENDTAB
  0
TABLE
  2
UCS
 70
     0
  0
ENDTAB
  0
TABLE
  2
APPID
 70
     1
  0
APPID
  2
ACAD
 70
     0
  0
ENDTAB
  0
TABLE
  2
DIMSTYLE
 70
     1
  0
DIMSTYLE
  2
ISO-25
 70
     0
  3

  4

  5

  6

  7

 40
1.0
 41
2.5
 42
0.625
 43
3.75
 44
1.25
 45
0.0
 46
0.0
 47
0.0
 48
0.0
140
2.5
141
2.5
142
0.0
143
0.0393700787
144
1.0
145
0.0
146
1.0
147
0.625
 71
     0
 72
     0
 73
     0
 74
     0
 75
     0
 76
     0
 77
     1
 78
     8
170
     0
171
     3
172
     1
173
     0
174
     0
175
     0
176
     0
177
     0
178
     0
  0
ENDTAB
  0
ENDSEC
  0
SECTION
  2
BLOCKS
  0
BLOCK
  8
0
  2
$MODEL_SPACE
 70
     0
 10
0.0
 20
0.0
 30
0.0
  3
$MODEL_SPACE
  1

  0
ENDBLK
  5
21
  8
0
  0
BLOCK
 67
     1
  8
0
  2
$PAPER_SPACE
 70
     0
 10
0.0
 20
0.0
 30
0.0
  3
$PAPER_SPACE
  1

  0
ENDBLK
  5
1D
 67
     1
  8
0
  0
ENDSEC
  0
SECTION
  2
ENTITIES
  0
CIRCLE
  5
7A
  8
CUT
 10
-0.1764733609
 20
191.2031094656
 30
0.0
 40
2.5
  0
CIRCLE
  5
7B
  8
CUT
 10
-8.8588822443
 20
141.962721815
 30
0.0
 40
2.500000000000028
  0
CIRCLE
  5
7C
  8
CUT
 10
7.0
 20
62.5
 30
0.0
 40
1.75
  0
CIRCLE
  5
7D
  8
CUT
 10
7.0
 20
87.5
 30
0.0
 40
1.750000000000014
  0
CIRCLE
  5
7E
  8
CUT
 10
7.0
 20
75.0
 30
0.0
 40
2.500000000000014
  0
CIRCLE
  5
7F
  8
CUT
 10
25.0
 20
42.1831414861
 30
0.0
 40
3.0
  0
CIRCLE
  5
80
  8
CUT
 10
25.0
 20
82.1831414861
 30
0.0
 40
3.000000000000014
  0
CIRCLE
  5
8D
  8
CUT
 10
0.0
 20
0.0
 30
0.0
 40
8.049999999999999
  0
CIRCLE
  5
8E
  8
CUT
 10
25.0
 20
62.1831414861
 30
0.0
 40
3.0
  0
CIRCLE
  5
8F
  8
CUT
 10
10.5654565435
 20
22.6576946759
 30
0.0
 40
2.500000000000004
  0
CIRCLE
  5
98
  8
CUT
 10
25.0
 20
52.1831414861
 30
0.0
 40
3.000000000000007
  0
CIRCLE
  5
99
  8
CUT
 10
25.0
 20
72.1831414861
 30
0.0
 40
3.0
  0
LINE
  5
A6
  8
CUT
 10
28.0064957677
 20
94.0593961725
 30
0.0
 11
5.8201609201
 21
166.6276276034
 31
0.0
  0
LINE
  5
A7
  8
CUT
 10
-0.0031766069
 20
166.2714570222
 30
0.0
 11
-3.1511990656
 21
148.4181344843
 31
0.0
  0
LINE
  5
A8
  8
CUT
 10
10.2394005536
 20
-7.1697054544
 30
0.0
 11
36.3830408858
 21
30.167282375
 31
0.0
  0
LINE
  5
A9
  8
CUT
 10
-4.3773787588
 20
199.0518287139
 30
0.0
 11
-14.9845253979
 21
138.8957108214
 31
0.0
  0
LINE
  5
AA
  8
CUT
 10
4.1811704027
 20
200.5890054166
 30
0.0
 11
-0.9020109668
 21
201.4853074399
 31
0.0
  0
LINE
  5
AB
  8
CUT
 10
39.1260951193
 20
91.8918617152
 30
0.0
 11
6.5291401375
 21
198.5116972718
 31
0.0
  0
LINE
  5
AC
  8
CUT
 10
40.0
 20
41.638811102
 30
0.0
 11
40.0
 21
86.0444276208
 31
0.0
  0
LINE
  5
AD
  8
CUT
 10
8.8838545309
 20
10.152690711
 30
0.0
 11
9.7675149081
 21
15.2002628696
 31
0.0
  0
LINE
  5
AE
  8
CUT
 10
5.3656393448
 20
17.252891155
 30
0.0
 11
2.0669806832
 21
13.3314511909
 31
0.0
  0
LINE
  5
AF
  8
CUT
 10
14.4169947557
 20
52.1831414861
 30
0.0
 11
12.1413465361
 21
52.1831414861
 31
0.0
  0
LINE
  5
B0
  8
CUT
 10
21.7745249523
 20
26.7386274194
 30
0.0
 11
24.058633298
 21
30.0006722005
 31
0.0
  0
ARC
  5
B1
  8
CUT
 10
-0.2021699373
 20
136.0203879272
 30
0.0
 40
3.000000000000276
 50
145.5326469378
 51
201.6779193845
  0
ARC
  5
B2
  8
CUT
 10
-173.6690571377
 20
67.0669548171
 30
0.0
 40
183.6690571377103
 50
9.0835902305
 51
21.6779193845
  0
ARC
  5
B3
  8
CUT
 10
10.658995196
 20
96.5373809345
 30
0.0
 40
2.999999999999976
 50
189.0835902305
 51
247.9582840594
  0
ARC
  5
B4
  8
CUT
 10
7.0
 20
87.5
 30
0.0
 40
6.749999999999972
 50
10.4644206241
 51
67.9582840594
  0
ARC
  5
B5
  8
CUT
 10
16.5878368504
 20
89.2708428867
 30
0.0
 40
3.000000000000003
 50
190.4644206241
 51
319.8840539455
  0
ARC
  5
B6
  8
CUT
 10
25.0
 20
82.1831414861
 30
0.0
 40
7.999999999999967
 50
89.2833595622
 51
139.8840539455
  0
ARC
  5
B7
  8
CUT
 10
25.1375814998
 20
93.1822810584
 30
0.0
 40
3.0
 50
269.2833595622
 51
17.0
  0
ARC
  5
B8
  8
CUT
 10
2.9512466522
 20
165.7505124892
 30
0.0
 40
3.000000000000005
 50
17.0
 51
170.0
  0
ARC
  5
B9
  8
CUT
 10
-0.1967758065
 20
147.8971899513
 30
0.0
 40
3.000000000000067
 50
170.0
 51
214.4153085972
  0
ARC
  5
BA
  8
CUT
 10
-8.8588822443
 20
141.962721815
 30
0.0
 40
7.500000000000037
 50
325.5326469378
 51
34.4153085972
  0
ARC
  5
BB
  8
CUT
 10
20.0
 20
41.638811102
 30
0.0
 40
19.9999999999999
 50
325.0
 51
0.0
  0
ARC
  5
BC
  8
CUT
 10
0.0
 20
0.0
 30
0.0
 40
12.50000000000011
 50
158.884597637
 51
325.0
  0
ARC
  5
BD
  8
CUT
 10
-173.6690571377
 20
67.0669548171
 30
0.0
 40
173.6690571377007
 50
338.884597637
 51
23.8049073177
  0
ARC
  5
BE
  8
CUT
 10
-12.0301021389
 20
138.3747662884
 30
0.0
 40
3.00000000000065
 50
170.0
 51
203.8049073177
  0
ARC
  5
BF
  8
CUT
 10
-1.4229554998
 20
198.5308841809
 30
0.0
 40
3.000000000000044
 50
80.0
 51
170.0
  0
ARC
  5
C0
  8
CUT
 10
3.6602258697
 20
197.6345821576
 30
0.0
 40
2.999999999999939
 50
17.0
 51
80.0
  0
ARC
  5
C1
  8
CUT
 10
20.0
 20
86.0444276208
 30
0.0
 40
19.9999999999998
 50
0.0
 51
17.0
  0
ARC
  5
C2
  8
CUT
 10
0.0
 20
0.0
 30
0.0
 40
12.00000000000006
 50
52.5836358945
 51
77.4163641055
  0
ARC
  5
C3
  8
CUT
 10
7.8988351746
 20
10.3251345214
 30
0.0
 40
0.9999999999999984
 50
232.5836358945
 51
350.0700621449
  0
ARC
  5
C4
  8
CUT
 10
8.7824955518
 20
15.3727066799
 30
0.0
 40
1.000000000000009
 50
350.0700621449
 51
76.2475084156
  0
ARC
  5
C5
  8
CUT
 10
10.5654565435
 20
22.6576946759
 30
0.0
 40
6.500000000000203
 50
233.7524915844
 51
256.2475084156
  0
ARC
  5
C6
  8
CUT
 10
6.130897205
 20
16.6091672954
 30
0.0
 40
1.000000000000003
 50
53.7524915844
 51
139.9299378551
  0
ARC
  5
C7
  8
CUT
 10
2.8322385434
 20
12.6877273313
 30
0.0
 40
1.000000000000011
 50
139.9299378551
 51
257.4163641055
  0
ARC
  5
C8
  8
CUT
 10
14.4169947557
 20
49.1831414861
 30
0.0
 40
3.000000000000014
 50
15.8266201319
 51
90.0
  0
ARC
  5
C9
  8
CUT
 10
12.1413465361
 20
49.1831414861
 30
0.0
 40
3.000000000000043
 50
90.0
 51
174.5023505795
  0
ARC
  5
CA
  8
CUT
 10
-173.6690571377
 20
67.0669548171
 30
0.0
 40
183.6690571377412
 50
349.5270767367
 51
354.5023505796
  0
ARC
  5
CB
  8
CUT
 10
9.8902649269
 20
33.1359634394
 30
0.0
 40
3.000000000000002
 50
169.5270767366
 51
273.6868895784
  0
ARC
  5
CC
  8
CUT
 10
10.5654565435
 20
22.6576946759
 30
0.0
 40
7.499999999999996
 50
33.5413906592
 51
93.6868895784
  0
ARC
  5
CD
  8
CUT
 10
19.3170688195
 20
28.4593567284
 30
0.0
 40
2.999999999999993
 50
213.5413906592
 51
325.0
  0
ARC
  5
CE
  8
CUT
 10
21.6011771652
 20
31.7214015095
 30
0.0
 40
3.000000000000002
 50
325.0
 51
72.0019940946
  0
ARC
  5
CF
  8
CUT
 10
25.0
 20
42.1831414861
 30
0.0
 40
7.999999999999987
 50
152.9643082106
 51
252.0019940946
  0
ARC
  5
D0
  8
CUT
 10
15.2020410289
 20
47.1831414861
 30
0.0
 40
3.000000000000017
 50
332.9643082106
 51
27.0356917894
  0
ARC
  5
D1
  8
CUT
 10
25.0
 20
52.1831414861
 30
0.0
 40
7.999999999999526
 50
195.8266201319
 51
207.0356917894
  0
ENDSEC
  0
EOF
